<?xml version="1.0" encoding="iso-8859-1"?>
<!-- Uploaded to: SVG Repo, www.svgrepo.com, Generator: SVG Repo Mixer Tools -->
<!DOCTYPE svg PUBLIC "-//W3C//DTD SVG 1.1//EN" "http://www.w3.org/Graphics/SVG/1.1/DTD/svg11.dtd">
<svg class="w-16 h-16 mb-4 mx-auto fill-current" height="800px" width="800px" xmlns="http://www.w3.org/2000/svg" xmlns:xlink="http://www.w3.org/1999/xlink" 
    viewBox="0 0 347.469 347.469" xml:space="preserve">
<g>
	<path d="M300.935,286.74c-2.761,0-5,2.239-5,5v10.385c0,2.761,2.239,5,5,5c2.761,0,5-2.239,5-5V291.74
		C305.935,288.979,303.696,286.74,300.935,286.74z"/>
	<path d="M300.935,0H174.407c-2.761,0-5,2.239-5,5s2.239,5,5,5h121.528v265.803c0,2.761,2.239,5,5,5c2.761,0,5-2.239,5-5V5
		C305.935,2.239,303.696,0,300.935,0z"/>
	<path d="M92.745,304.738h170c2.761,0,5-2.239,5-5s-2.239-5-5-5h-170c-2.761,0-5,2.239-5,5S89.984,304.738,92.745,304.738z"/>
	<path d="M262.745,221.596h-170c-2.761,0-5,2.239-5,5c0,2.761,2.239,5,5,5h170c2.761,0,5-2.239,5-5
		C267.745,223.834,265.506,221.596,262.745,221.596z"/>
	<path d="M92.745,268.346h19.995c2.761,0,5-2.239,5-5c0-2.761-2.239-5-5-5H92.745c-2.761,0-5,2.239-5,5
		C87.745,266.107,89.984,268.346,92.745,268.346z"/>
	<path d="M140.706,268.346c2.761,0,5-2.239,5-5c0-2.761-2.239-5-5-5h-10.661c-2.761,0-5,2.239-5,5c0,2.761,2.239,5,5,5H140.706z"/>
	<path d="M262.745,258.346H157.74c-2.761,0-5,2.239-5,5c0,2.761,2.239,5,5,5h105.005c2.761,0,5-2.239,5-5
		C267.745,260.585,265.506,258.346,262.745,258.346z"/>
	<path d="M92.959,195.024h91.448c2.761,0,5-2.239,5-5c0-2.761-2.239-5-5-5H92.959c-2.761,0-5,2.239-5,5
		C87.959,192.785,90.198,195.024,92.959,195.024z"/>
	<path d="M262.745,185.024h-61.338c-2.761,0-5,2.239-5,5c0,2.761,2.239,5,5,5h61.338c2.761,0,5-2.239,5-5
		C267.745,187.263,265.506,185.024,262.745,185.024z"/>
	<path d="M262.745,148.453h-170c-2.761,0-5,2.239-5,5c0,2.761,2.239,5,5,5h170c2.761,0,5-2.239,5-5
		C267.745,150.691,265.506,148.453,262.745,148.453z"/>
	<path d="M262.809,121.773c2.761-0.035,4.971-2.302,4.936-5.063c-0.035-2.761-2.296-5.007-5.063-4.936
		c-11.189,0.142-20.228,0.142-31.2,0c-2.753-0.054-5.028,2.173-5.064,4.935s2.173,5.029,4.935,5.064
		C236.884,121.845,257.169,121.845,262.809,121.773z"/>
	<path d="M89.682,112.868c-1.688,1.308-2.358,3.544-1.669,5.565c0.689,2.021,2.586,3.382,4.721,3.387
		c17.188,0.04,96.773,0.025,119.438-0.046c2.758-0.009,4.989-2.249,4.984-5.008c-0.004-2.758-2.242-4.992-5-4.992H92.804
		C91.695,111.774,90.558,112.188,89.682,112.868z"/>
	<path d="M262.745,75.29H158.738c-2.761,0-5,2.239-5,5c0,2.761,2.239,5,5,5h104.007c2.761,0,5-2.239,5-5
		C267.745,77.529,265.506,75.29,262.745,75.29z"/>
	<path d="M300.935,313.125c-2.761,0-5,2.239-5,5v19.344h-244.4V98.261h83.261c2.761,0,5-2.239,5-5V10h14.139c2.761,0,5-2.239,5-5
		s-2.239-5-5-5h-19.139c-1.326,0-2.598,0.527-3.536,1.464L42.999,89.726c-0.938,0.938-1.464,2.209-1.464,3.536v249.208
		c0,2.761,2.239,5,5,5h254.4c2.761,0,5-2.239,5-5v-24.344C305.935,315.364,303.696,313.125,300.935,313.125z M129.738,17.129
		L129.738,17.129l0.058-0.058v71.19h-71.19L129.738,17.129z"/>
</g>
</svg>